<?xml version="1.0" standalone="no"?>
<!DOCTYPE svg PUBLIC "-//W3C//DTD SVG 20010904//EN"
 "http://www.w3.org/TR/2001/REC-SVG-20010904/DTD/svg10.dtd">
<svg version="1.0" xmlns="http://www.w3.org/2000/svg"
 width="700.000000pt" height="700.000000pt" viewBox="0 0 700.000000 700.000000"
 preserveAspectRatio="xMidYMid meet">
<metadata>
Created by potrace 1.14, written by Peter Selinger 2001-2017
</metadata>
<g transform="translate(0.000000,700.000000) scale(0.100000,-0.100000)"
fill="#000000" stroke="none">
<path d="M3490 6978 c0 -6 -54 -190 -121 -407 -240 -786 -379 -1241 -464
-1521 -105 -346 -102 -340 -123 -335 -161 38 -228 52 -232 48 -8 -7 -6 -213 2
-261 9 -51 51 -160 86 -222 83 -146 245 -312 441 -450 50 -35 86 -67 81 -70
-16 -10 -169 9 -247 30 -130 35 -278 122 -366 213 -69 72 -146 207 -118 207 5
0 12 -8 15 -18 17 -52 268 -272 310 -272 6 0 -21 33 -61 74 -125 131 -213 283
-238 413 -19 101 8 251 60 326 27 40 26 41 -30 52 -22 5 -44 9 -50 11 -9 2
-177 40 -215 49 -8 2 -85 20 -170 40 -85 20 -166 39 -180 42 -14 2 -70 15
-125 28 -55 13 -181 43 -280 65 -99 23 -218 50 -265 62 -47 11 -92 21 -100 23
-46 9 -597 137 -610 141 -14 5 3 -17 65 -82 17 -17 69 -74 116 -125 91 -100
95 -103 253 -273 55 -60 106 -114 111 -120 6 -6 71 -76 145 -156 74 -80 139
-150 145 -156 23 -25 213 -230 245 -264 19 -21 74 -80 121 -131 48 -52 100
-108 115 -124 16 -17 79 -84 139 -150 61 -65 121 -129 134 -142 25 -26 25 -27
-29 -84 -13 -14 -179 -192 -255 -273 -39 -43 -240 -258 -285 -306 -118 -126
-252 -270 -280 -300 -18 -19 -87 -93 -154 -165 -144 -154 -222 -237 -266 -285
-25 -28 -155 -166 -290 -310 -35 -37 -44 -51 -29 -46 13 5 294 70 784 182 110
25 207 47 215 49 8 2 105 25 215 51 110 25 216 50 235 54 149 31 356 83 363
89 10 10 26 77 27 109 0 21 -4 22 -82 22 l-82 0 40 34 c47 40 91 116 100 174
4 23 12 42 18 43 6 1 59 2 119 2 l107 2 -6 -45 c-13 -97 -30 -163 -53 -208
-20 -38 -71 -91 -106 -110 -32 -18 -13 -14 205 37 142 33 207 45 212 37 5 -10
67 -209 147 -476 16 -52 79 -259 141 -460 193 -632 204 -668 306 -1002 54
-180 102 -324 105 -320 4 4 53 158 109 342 55 184 114 376 129 425 26 83 61
195 98 320 8 28 19 61 23 75 5 14 82 264 171 555 89 292 164 535 168 541 4 8
48 2 151 -22 80 -19 154 -36 165 -38 22 -4 331 -76 460 -106 78 -18 275 -64
520 -120 416 -96 759 -175 882 -203 146 -34 147 -34 103 13 -30 32 -235 252
-258 278 -14 15 -73 78 -131 141 -58 63 -111 119 -116 125 -64 69 -173 186
-275 295 -69 74 -132 142 -142 153 -9 10 -63 69 -120 130 -56 61 -116 125
-132 142 -114 124 -361 389 -389 419 -20 20 -19 24 33 78 8 9 60 64 115 123
55 60 116 125 135 145 88 94 280 299 304 326 16 17 74 80 131 140 56 61 117
126 135 145 18 19 85 91 150 160 64 69 143 154 176 189 32 35 75 81 94 101 19
20 85 90 145 155 61 65 119 128 130 140 64 67 66 65 -47 38 -57 -14 -110 -26
-118 -28 -170 -38 -812 -185 -915 -210 -71 -17 -452 -105 -479 -111 -11 -2
-105 -24 -210 -48 -105 -25 -206 -48 -225 -51 -19 -3 -37 -8 -41 -10 -4 -2
-20 -7 -36 -9 -32 -6 -40 -8 -129 -30 -61 -15 -75 -14 -75 7 0 7 -32 116 -70
242 -77 249 -141 460 -166 540 -8 28 -56 183 -105 345 -50 162 -113 369 -141
460 -28 91 -68 224 -90 295 -75 243 -80 260 -88 290 -17 65 -40 107 -40 73z
m-134 -2160 c-76 -141 -104 -309 -72 -423 l14 -50 2 55 c4 125 34 223 100 322
35 53 42 47 18 -14 -91 -233 -71 -442 52 -563 41 -40 73 -47 115 -25 53 28 75
134 41 198 -10 19 -15 36 -12 39 3 3 25 -6 49 -20 98 -58 159 -153 151 -240
-4 -53 -43 -127 -67 -127 -12 -1 9 -21 53 -50 124 -84 193 -148 269 -250 53
-71 115 -189 127 -242 3 -13 8 -57 11 -98 3 -41 7 -77 10 -80 10 -10 73 74
103 135 49 102 70 254 47 350 -9 37 -40 110 -59 137 -10 14 -18 30 -18 35 0
23 -279 273 -368 330 -15 10 -33 23 -39 29 -7 7 -29 22 -50 35 -94 58 83 12
210 -54 99 -52 100 -53 167 -102 305 -223 396 -496 258 -769 -56 -110 -122
-191 -282 -345 -61 -58 -197 -201 -295 -311 -41 -46 -57 -47 -65 -4 -11 51
-50 135 -80 170 -19 22 -56 51 -82 66 -92 50 -158 60 -416 63 -351 4 -494 23
-676 86 -269 94 -440 262 -491 484 -28 122 -13 304 34 410 28 64 101 146 155
174 44 23 54 16 40 -25 -38 -116 -55 -341 -34 -444 4 -19 8 -37 8 -40 1 -3 10
-27 20 -55 54 -139 162 -264 284 -328 74 -39 202 -81 282 -92 25 -3 56 -8 70
-10 29 -5 151 -14 265 -20 307 -17 471 -63 569 -161 35 -35 76 -101 76 -123 0
-5 5 -22 11 -38 l11 -28 31 36 c39 44 114 174 133 228 49 144 24 357 -59 487
-60 95 -210 218 -481 393 -80 52 -170 119 -200 150 -58 58 -115 130 -116 144
0 4 -10 29 -21 55 -28 61 -34 177 -13 258 25 96 82 192 160 272 39 39 76 72
83 72 6 0 -9 -37 -33 -82z m507 -1746 c17 -15 23 -43 11 -55 -9 -8 -53 22 -65
45 -20 38 13 44 54 10z m-330 -184 c79 -31 163 -100 215 -177 23 -34 40 -66
38 -70 -4 -6 -1679 -8 -1708 -2 -15 2 -8 40 10 50 9 5 44 12 77 16 32 3 62 8
65 10 3 1 32 6 65 9 33 4 184 34 335 68 353 78 498 106 585 114 39 4 72 8 74
10 2 2 45 2 95 0 63 -3 108 -12 149 -28z m832 -42 c46 -8 60 -11 215 -51 294
-76 346 -87 439 -101 94 -14 101 -16 101 -43 0 -16 -36 -17 -605 -17 -491 -1
-605 2 -605 12 0 19 115 139 157 165 65 41 103 50 188 45 44 -3 94 -7 110 -10z
m-2400 -286 c-3 -5 1 -10 10 -10 9 0 13 5 10 10 -10 16 1 11 16 -7 10 -11 10
-14 2 -9 -11 6 -17 -3 -15 -25 1 -3 -6 -6 -14 -6 -17 0 -19 14 -2 19 7 3 5 7
-5 11 -26 10 -35 -22 -11 -41 10 -8 13 -12 5 -10 -29 8 -36 35 -17 57 20 22
31 28 21 11z m305 -10 c4 -8 4 -25 -1 -37 -8 -22 -14 -23 -114 -23 l-105 0 0
33 c0 19 2 36 4 38 3 3 51 4 106 4 79 0 104 -4 110 -15z m1518 11 c7 0 12 -15
12 -36 l0 -35 -57 -1 c-71 -1 -1145 0 -1155 0 -11 1 -10 25 1 53 l9 23 588 -1
c324 -1 595 -2 602 -3z m1352 -16 c4 -11 5 -28 2 -37 -4 -16 -18 -18 -126 -19
-159 -1 -1052 -1 -1093 0 -31 1 -33 4 -33 34 0 19 2 36 4 38 3 2 282 4 622 4
606 0 617 0 624 -20z m-3133 -37 c-3 -8 -6 -5 -6 6 -1 11 2 17 5 13 3 -3 4
-12 1 -19z"/>
<path d="M2412 2518 c-7 -7 -12 -18 -12 -25 0 -7 -11 -13 -24 -13 -13 0 -26
-7 -30 -15 -4 -11 1 -15 19 -15 24 0 24 0 10 -41 -18 -51 -19 -62 -2 -57 6 3
19 25 28 49 10 27 24 45 35 47 32 6 41 22 16 29 -17 4 -22 11 -19 24 6 23 -6
32 -21 17z"/>
</g>
</svg>
